# xmcd CD database file
#
# Track frame offsets:
#	150
#	43963
#	78901
#	106289
#	137168
#	178792
#	212388
#
# Disc length: 3102 seconds
#
# Revision: 0
# Processed by: cddbd v1.5.2PL0 Copyright (c) Steve Scherf et al.
# Submitted via: CDex 1.77
#
DISCID=5b0c1c07
DTITLE=Mike Mainieri and Warren Bernhardt - Free Smiles
DYEAR=1978
DGENRE=Jazz
TTITLE0=Praise
TTITLE1=Song to Seth
TTITLE2=Instant Garlic
TTITLE3=I'll Sing You Softly
TTITLE4=Stella by Starlight
TTITLE5=Free Smiles
TTITLE6=Mediterranean Waters Calling
EXTD=YEAR: 1978
EXTT0=
EXTT1=
EXTT2=
EXTT3=
EXTT4=
EXTT5=
EXTT6=
PLAYORDER=
